<svg xmlns="http://www.w3.org/2000/svg" width="32" height="32">
  <path d="M25.4 16c.6 0 1 .4 1 1 0 .5-.4.9-.9 1H13.4c-.6 0-1-.4-1-1 0-.5.4-.9.9-1h12.1zm-2.1 4c.6 0 1 .4 1 1 0 .5-.4.9-.9 1h-8c-.6 0-1-.4-1-1 0-.5.4-.9.9-1h8zM4.5 17.5c.5 0 .9.4 1 .9v2.1h2c.6 0 1 .4 1 1 0 .5-.4.9-.9 1H5.5v2c0 .6-.4 1-1 1-.5 0-.9-.4-1-.9v-2.1h-2c-.6 0-1-.4-1-1 0-.5.4-.9.9-1h2.1v-2c0-.6.4-1 1-1zM19.4 4c2.9 0 4.4.5 5.7 2.4.2.3.3.6.5.9.2.5 0 1.1-.5 1.3-.5.2-1.1 0-1.3-.5l-.3-.6C22.6 6.4 21.7 6 19.6 6h-.3c-3.1 0-4.2.7-5 4h13.4c2 0 3.7 1.6 3.7 3.7v.8L29 25.1c-.4 1.6-1.8 2.8-3.4 2.9h-12c-1.7 0-3.1-1.1-3.6-2.7v-.2l-.4-1.9c-.1-.5.2-1.1.8-1.2.5-.1 1 .2 1.2.6v.1l.4 1.9c.2.7.8 1.2 1.5 1.3H25.4c.8 0 1.4-.5 1.6-1.2v-.1L29.5 14v-.4c0-.9-.7-1.6-1.6-1.7H10.8c-.9.2-1.4 1-1.3 1.8v.1l1.1 4.8c.1.5-.2 1.1-.8 1.2-.5.1-1-.2-1.2-.6v-.1l-1.1-4.8c-.4-2 .8-3.9 2.8-4.4.2 0 .4-.1.5-.1h1.5v-.2c1.1-4.4 3-5.6 7.1-5.6z"/>
</svg>
