<svg xmlns="http://www.w3.org/2000/svg" width="32" height="32">
  <path d="M21.9 16c.6 0 1 .4 1 1 0 .5-.4.9-.9 1H9.9c-.6 0-1-.4-1-1 0-.5.4-.9.9-1h12.1zm-2.1 4c.6 0 1 .4 1 1 0 .5-.4.9-.9 1h-8c-.6 0-1-.4-1-1 0-.5.4-.9.9-1h8zM15.9 4c2.9 0 4.4.5 5.7 2.4.1.3.3.6.4.9.2.5 0 1.1-.5 1.3-.5.2-1.1 0-1.3-.5l-.3-.6C19.1 6.4 18.2 6 16.1 6h-.3c-3.1 0-4.2.7-5 4h13.4c2 0 3.7 1.6 3.7 3.7v.8l-2.4 10.7c-.4 1.6-1.8 2.8-3.4 2.9h-12c-1.7 0-3.1-1.1-3.6-2.7v-.2l-.4-1.9c-.1-.5.2-1.1.8-1.2.5-.1 1 .2 1.2.6v.1l.4 1.9c.2.7.8 1.2 1.5 1.3H21.9c.8 0 1.4-.5 1.6-1.2v-.1L26 14v-.4c0-.9-.7-1.6-1.6-1.7H7.3c-.9.2-1.4 1-1.3 1.8v.3l1.1 4.8c.1.5-.2 1.1-.8 1.2-.5.1-1-.2-1.2-.6v-.1L4 14.5c-.4-2 .8-3.9 2.8-4.4.3-.1.5-.1.6-.1h1.5v-.2c.9-4.4 2.8-5.7 6.7-5.8h.3z"/>
</svg>
