<svg xmlns="http://www.w3.org/2000/svg" width="32" height="32">
  <path d="M4.4 14.6c-.8-.5-.5-1.7.4-1.8h6.1c.6 0 1 .5 1 1s-.4.9-.9 1H8.3l2.2 1.4c.6.4.6 1.1.1 1.6l-.1.1-2.1 1.5 2.6-.1c.7 0 1.1.6 1 1.2v.1l-.8 2.5 2.1-1.6c.5-.4 1.3-.2 1.5.4v.1l.8 2.5.7-2.6c.2-.6.9-.9 1.5-.6l.1.1L20 23l-.9-2.5c-.2-.6.2-1.3.8-1.3h2.7l-2.2-1.4c-.6-.4-.6-1.1-.1-1.6l.1-.1 2.1-1.5H20c-.7 0-1.1-.6-1-1.2v-.1l.8-2.5-2.1 1.6c-.5.4-1.3.2-1.5-.4v-.1l-.8-2.5-.8 2.6c-.2.6-.9.9-1.5.6l-.1-.1L8.3 9c-.5-.3-.6-1-.3-1.4.3-.4.9-.5 1.3-.3l.1.1 3.7 2.7 1.2-4.4c.3-.9 1.5-1 1.9-.1v.1l1.4 4.3 3.6-2.8c.7-.6 1.8.1 1.6 1v.1l-1.4 4.3 4.6-.2c1 0 1.4 1.1.7 1.7l-.1.1-3.7 2.6 3.8 2.5c.8.5.5 1.7-.4 1.8H21.6l1.6 4.2c.3.9-.6 1.7-1.4 1.2l-.1-.1-3.7-2.7-1.2 4.4c-.3.9-1.5 1-1.9.1v-.1l-1.4-4.3-3.6 2.8c-.7.6-1.8-.1-1.6-1v-.1l1.4-4.3-4.6.2c-1 0-1.4-1.1-.7-1.7l.1-.1L8.2 17l-3.8-2.4z"/>
</svg>
