<svg xmlns="http://www.w3.org/2000/svg" width="32" height="32">
  <path d="M20.5 5.5h-10v6l.9-.7c.3-.3.8-.3 1.1-.1l.1.1.9.7V7.6c0-.5.4-.9.9-1h.1c.5 0 .9.4 1 .9v6c0 .8-.9 1.3-1.5.9l-.1-.1-1.9-1.5-1.9 1.5c-.6.5-1.5.1-1.6-.7V5.5c-1.1 0-2 .9-2 2v17c0 1.1.9 2 2 2h12c1.1 0 2-.9 2-2v-17c0-1.1-.9-2-2-2zm0-2c1.5 0 2.8.8 3.4 2H24.5c1.7.1 3 1.9 3 4v14.4c0 .6-.1 1.3-.2 2-.2 1-.5 1.8-1.1 2.3-.4.4-1 .4-1.4 0-.4-.4-.4-1 0-1.4l.1-.1c.2-.2.3-.7.5-1.2.1-.7.2-1.4.2-2V9.3c-.1-.9-.5-1.6-1-1.8v17c0 2.2-1.8 4-4 4h-12c-2.2 0-4-1.8-4-4v-17c0-2.2 1.8-4 4-4h11.9z"/>
</svg>
