<svg xmlns="http://www.w3.org/2000/svg" width="32" height="32">
  <path d="M16 5.4c1.4 0 2.7.5 3.8 1.4.1-.1.2-.1.3-.2.6-.2 1.2-.4 1.9-.4 2.8 0 5.1 2.2 5.1 4.9 0 2.4-2.1 4.6-4.6 5v9.4c0 .5-.4.9-.9 1H10.5c-.5 0-.9-.4-1-.9v-7.1c0-.6.4-1 1-1 .5 0 .9.4 1 .9v6.1h1.7v-3c0-.6.4-1 1-1 .5 0 .9.4 1 .9v3.1h1.7v-3c0-.6.4-1 1-1 .5 0 .9.4 1 .9v3.1h1.7v-9.3c0-.5.4-.9.9-1H21.8c1.8 0 3.4-1.5 3.4-3 0-1.6-1.4-2.9-3.1-2.9-.3 0-.6 0-.9.1.1.4 0 .9-.4 1.1-.5.3-1.1.2-1.4-.3-.8-1.2-2-1.8-3.3-1.8s-2.5.7-3.3 1.8c-.3.5-.9.6-1.4.3-.4-.3-.5-.7-.4-1.1-.3-.1-.6-.1-.8-.1-1.7 0-3.1 1.3-3.1 2.9 0 .8.4 1.6 1 2.2.3.2.6.4 1 .6.3.1.7.2 1.1.2.6 0 1 .4 1 1s-.4 1-1 1-1.2-.1-1.8-.3c-.6-.2-1.1-.5-1.6-.9-1.1-.9-1.8-2.3-1.8-3.7 0-2.7 2.3-4.9 5.1-4.9.7 0 1.3.1 1.9.4.1 0 .2.1.3.1 1-1 2.3-1.5 3.7-1.5z"/>
</svg>
