<svg xmlns="http://www.w3.org/2000/svg" width="32" height="32">
  <path d="M16 7.9c.5 0 .9.4 1 .9v3.1c0 .6-.4 1-1 1-.5 0-.9-.4-1-.9V8.9c0-.6.4-1 1-1zm-8.6 4l2.2 2.2c.4.4.4 1 0 1.4-.4.4-.9.4-1.3.1l-.1-.1-2.1-2.1c-.4-.4-.4-1 0-1.4.4-.4.9-.4 1.3-.1zm18.5.1c.4.4.4.9.1 1.3l-.1.1-2.1 2.1c-.4.4-1 .4-1.4 0-.4-.4-.4-.9-.1-1.3l.1-.1 2.1-2.1c.4-.4 1-.4 1.4 0zM6 20.9c.6 0 1 .4 1 1 0 .5-.4.9-.9 1H3c-.6 0-1-.4-1-1 0-.5.4-.9.9-1H6zm23 0c.6 0 1 .4 1 1 0 .5-.4.9-.9 1H26c-.6 0-1-.4-1-1 0-.5.4-.9.9-1H29zm-13-6c3.9 0 7 3.1 7 7 0 .3 0 .7-.1 1h-2c.1-.3.1-.7.1-1 0-2.8-2.2-5-5-5s-5 2.2-5 5c0 .3 0 .7.1 1h-2c0-.3-.1-.7-.1-1 0-3.9 3.1-7 7-7z"/>
</svg>
