<svg xmlns="http://www.w3.org/2000/svg" width="32" height="32">
  <path d="M23.4 4.7c.4-.4 1.1-.5 1.6-.1l3.5 3.5c.3.3.4.8.2 1.3-.2.4-.6.7-1.1.7-.3 0-.6-.1-.8-.3l-3.5-3.5c-.4-.4-.4-1.1.1-1.6zm-16.3 0c.5-.4 1.1-.4 1.6.1.4.4.5 1.1.1 1.6L5.3 9.8c-.3.3-.7.5-1.1.4-.4-.1-.8-.4-.9-.9-.1-.4 0-.9.4-1.2l3.4-3.4zM18.7 14c.5-.4 1.1-.4 1.6.1.4.4.5 1.1.1 1.6l-3.5 3.5c-.5.5-1.2.5-1.6 0-.4-.5-.4-1.2 0-1.6l3.4-3.6zM16 9c-5.1 0-9.2 4.2-9.2 9.3 0 5.2 4.1 9.3 9.2 9.3s9.2-4.2 9.2-9.3C25.3 13.2 21.1 9 16 9zm3.5-7c.6 0 1.2.5 1.2 1.2 0 .6-.5 1.2-1.2 1.2h-2.3v2.4c6.2.6 10.8 6.1 10.4 12.4s-5.7 11-12 10.8c-6.2-.2-11.1-5.4-11.1-11.7 0-6 4.5-11 10.4-11.6V4.3h-2.3c-.6 0-1.2-.5-1.2-1.2 0-.6.5-1.2 1.2-1.2h6.9z"/>
</svg>
