<svg xmlns="http://www.w3.org/2000/svg" width="32" height="32">
  <path d="M13.6 4.2L16 6.6l2.3-2.3c.4-.4.9-.4 1.3-.1l.1.1c.4.4.4.9.1 1.3l-.1.1L17 8.4v5.9l5.1-2.9 1-3.7c.1-.5.7-.9 1.2-.7.5.1.8.5.7 1v.1l-.8 3.1 3.1.8c.5.1.8.6.7 1.1v.1c-.1.5-.6.8-1.1.7h-.1l-3.7-1L18 16l5.1 2.9 3.7-1h.1c.5-.1 1 .2 1.1.7v.1c.1.5-.2 1-.7 1.1l-3.1.8.8 3.1v.1c.1.5-.2 1-.7 1.1-.5.1-1.1-.2-1.2-.7l-1-3.7-5.1-2.8v5.9l2.7 2.7c.4.4.4 1 0 1.4-.4.4-.9.4-1.3.1l-.1-.1-2.3-2.3-2.3 2.3c-.4.4-.9.4-1.3.1l-.1-.1c-.4-.4-.4-.9-.1-1.3l.1-.1 2.7-2.7v-5.9l-5.1 2.9-1 3.7c-.1.5-.7.9-1.2.7-.5-.1-.8-.5-.7-1v-.1l.8-3.1-3.1-.8c-.5-.1-.8-.6-.7-1.1v-.1c.1-.5.6-.8 1.1-.7h.1l3.7 1L14 16l-5.1-2.9-3.7 1h-.1c-.5.1-1-.2-1.1-.7v-.1c-.1-.5.2-1 .7-1.1l3.1-.8L7 8.2V8c-.1-.5.2-1 .7-1.1.5-.1 1.1.2 1.2.7l1 3.7 5.1 2.9V8.4l-2.7-2.7c-.4-.4-.4-1 0-1.4.4-.4.9-.4 1.3-.1z"/>
</svg>
